PathFileType	4	(X/Y/Z)	E:\Studenten\Marcel_BSc\Ayumi_25_09_2024\25-09-2024\static_00.trc
DataRate	CameraRate	NumFrames	NumMarkers	Units	OrigDataRate	OrigDataStartFrame	OrigNumFrames
200.0	200.0	4	62	mm	200.0	111	295	
Frame#	Time	LASI			RASI			RSACR			LSACR			USACR			LBAR			RBAR			RHEE			RMT1			RMT5			RMT2			LHEE			LMT1			LMT5			LMT2			LMMAL			LMFC			LLFC			LLMAL			LTIB4			LTIB2			LTIB3			LTIB1			RMMAL			RMFC			RLFC			RLMAL			RTIB1			RTIB2			RTIB3			RTHI1			RTHI4			RTHI3			RTHI2			LTHI1			LTHI4			LTHI3			LTHI2			FHD			LBHD			RBHD			C7			T10			CLAV			LSHO			RSHO			LRAD			LUL			LRFIN			RRAD			RUL			RUFIN			RLEP			RMEP			LLEP			LMEP			LDUPA			LMUPA			LUUPA			RDUPA			RUUPA			RMUPA			
		X1	Y1	Z1	X2	Y2	Z2	X3	Y3	Z3	X4	Y4	Z4	X5	Y5	Z5	X6	Y6	Z6	X7	Y7	Z7	X8	Y8	Z8	X9	Y9	Z9	X10	Y10	Z10	X11	Y11	Z11	X12	Y12	Z12	X13	Y13	Z13	X14	Y14	Z14	X15	Y15	Z15	X16	Y16	Z16	X17	Y17	Z17	X18	Y18	Z18	X19	Y19	Z19	X20	Y20	Z20	X21	Y21	Z21	X22	Y22	Z22	X23	Y23	Z23	X24	Y24	Z24	X25	Y25	Z25	X26	Y26	Z26	X27	Y27	Z27	X28	Y28	Z28	X29	Y29	Z29	X30	Y30	Z30	X31	Y31	Z31	X32	Y32	Z32	X33	Y33	Z33	X34	Y34	Z34	X35	Y35	Z35	X36	Y36	Z36	X37	Y37	Z37	X38	Y38	Z38	X39	Y39	Z39	X40	Y40	Z40	X41	Y41	Z41	X42	Y42	Z42	X43	Y43	Z43	X44	Y44	Z44	X45	Y45	Z45	X46	Y46	Z46	X47	Y47	Z47	X48	Y48	Z48	X49	Y49	Z49	X50	Y50	Z50	X51	Y51	Z51	X52	Y52	Z52	X53	Y53	Z53	X54	Y54	Z54	X55	Y55	Z55	X56	Y56	Z56	X57	Y57	Z57	X58	Y58	Z58	X59	Y59	Z59	X60	Y60	Z60	X61	Y61	Z61	X62	Y62	Z62	
111	0.55	132.8163	918.03217	-762.27576	128.54019	918.6377	-984.70349	308.31189	950.24481	-912.52509	307.48724	953.46979	-852.60901	296.62714	966.59985	-882.47101	1270.8534	26.314863	346.4664	1226.4147	26.289856	-1876.946	323.06277	39.870331	-1019.7103	128.149	43.464806	-1043.339	165.00343	34.983932	-1113.7817	140.17519	42.694134	-1079.9716	326.2663	45.85078	-745.17694	134.38435	46.343452	-736.48743	169.96225	33.445339	-662.8092	143.17349	45.933285	-698.06976	276.66629	72.954567	-778.70105	232.42323	456.8844	-829.1687	218.83128	453.95694	-721.55176	278.77603	69.158287	-701.00818	290.10886	209.67259	-691.56134	313.58151	271.34964	-691.33093	263.22269	268.21542	-684.61481	301.34402	314.38217	-687.20496	275.16733	68.374443	-994.12085	234.83412	446.57361	-935.41504	220.03998	461.31686	-1041.292	284.65332	72.258698	-1068.566	256.70844	319.2738	-1082.749	307.16534	314.11203	-1077.2397	276.30066	256.18048	-1081.3531	240.87268	783.88678	-1060.1749	241.85233	635.50769	-1066.3619	190.68071	636.98236	-1066.6409	218.28259	697.19934	-1070.2452	237.66858	778.88989	-698.87518	235.63805	646.50739	-694.80725	185.10468	637.39868	-693.28571	199.47415	701.1485	-689.43384	130.75333	1593.0109	-775.38843	241.44405	1575.7886	-786.61835	252.75684	1571.2737	-910.15192	262.65897	1391.2316	-858.12579	284.67267	1007.4737	-877.55298	140.1282	1328.4574	-873.03766	244.17168	1380.8519	-725.22504	236.31053	1396.7979	-987.07129	165.39796	1358.0571	-222.86736	206.03693	1353.6403	-222.47479	152.12085	1337.4495	-130.85097	241.86349	1389.0712	-1500.911	288.7464	1382.8486	-1499.9053	236.38757	1391.3081	-1591.1151	293.41232	1329.689	-1271.4473	255.05853	1296.1975	-1272.0447	220.85977	1300.1664	-454.23941	179.87424	1277.8409	-466.95551	236.96564	1353.8375	-506.24496	201.14618	1371.5129	-536.76617	238.0755	1362.45	-585.43774	266.33884	1382.1735	-1205.9258	256.94467	1383.8815	-1144.2406	216.17145	1385.3074	-1212.53
112	0.555	132.80753	918.04694	-762.27594	128.52754	918.64093	-984.6944	308.29984	950.23364	-912.53027	307.4841	953.45563	-852.6106	296.61789	966.59186	-882.47711	1270.8518	26.306892	346.45514	1226.421	26.300085	-1876.9524	323.08047	39.872852	-1019.7068	128.14917	43.462402	-1043.342	165.06447	34.8176	-1113.6543	140.17677	42.694092	-1079.9731	326.25604	45.844292	-745.17834	134.38019	46.348	-736.48694	170.15306	33.269482	-662.85962	143.17166	45.927429	-698.0614	276.66452	72.963623	-778.71283	232.41248	456.89267	-829.16455	218.83939	453.95493	-721.54761	278.78979	69.154991	-701.01172	290.1214	209.69104	-691.53998	313.56006	271.38254	-691.32379	263.24353	268.22314	-684.60303	301.34933	314.3786	-687.20667	275.1644	68.375839	-994.11389	234.82855	446.56741	-935.42133	220.02443	461.32013	-1041.2944	284.64755	72.262505	-1068.5688	256.72504	319.2699	-1082.7378	307.16098	314.10153	-1077.2375	276.30084	256.18698	-1081.3551	240.85326	783.88428	-1060.1686	241.84587	635.49347	-1066.3284	190.67215	636.99683	-1066.6512	218.35901	697.0968	-1070.1704	237.66165	778.88483	-698.86475	235.74707	646.71277	-694.66827	185.11885	637.40045	-693.2713	199.42145	701.14905	-689.65125	130.76567	1593.0178	-775.40485	241.45261	1575.7688	-786.63959	252.75883	1571.2573	-910.16748	262.66501	1391.2314	-858.14313	284.67178	1007.4704	-877.54944	140.13406	1328.448	-873.0434	244.17754	1380.8489	-725.23877	236.31569	1396.7899	-987.08289	165.43921	1358.0889	-222.87779	206.09044	1353.6718	-222.47772	152.14508	1337.6007	-130.78906	241.88516	1389.0739	-1500.9204	288.76163	1382.8459	-1499.9078	236.40515	1391.2937	-1591.1139	293.41571	1329.6761	-1271.4657	255.07617	1296.1947	-1272.0579	220.89027	1300.1907	-454.25488	179.91278	1277.8593	-466.96121	236.98991	1353.8469	-506.26056	201.17313	1371.5271	-536.77496	238.1082	1362.4707	-585.45312	266.35999	1382.1526	-1205.9307	256.96265	1383.8671	-1144.2476	216.16025	1385.3191	-1212.5332
113	0.56	132.8065	918.05115	-762.2597	128.52074	918.63733	-984.68909	308.29895	950.23395	-912.52173	307.47385	953.44604	-852.60815	296.61417	966.58557	-882.45941	1270.8484	26.307962	346.4863	1226.4149	26.307743	-1876.9651	323.06689	39.864498	-1019.7036	128.1483	43.459064	-1043.3573	165.06134	34.836517	-1113.6653	140.17688	42.69479	-1079.9701	326.26373	45.85149	-745.17004	134.38702	46.351635	-736.49078	170.03706	33.374348	-662.82867	143.16342	45.93219	-698.06635	276.66678	72.964066	-778.70795	232.41531	456.89706	-829.15552	218.83588	453.95663	-721.53229	278.78259	69.161964	-701.0155	290.11075	209.68788	-691.54364	313.5697	271.3793	-691.30066	263.23032	268.21695	-684.59302	301.34518	314.36646	-687.20197	275.17087	68.380493	-994.12079	234.83783	446.57788	-935.40887	220.02243	461.31345	-1041.2845	284.64459	72.267921	-1068.5692	256.72592	319.26724	-1082.7306	307.16275	314.10098	-1077.2371	276.27512	256.20151	-1081.3616	240.8362	783.87946	-1060.1638	241.99005	635.32495	-1065.9929	190.67316	636.99524	-1066.6523	218.35088	697.07208	-1070.1782	237.65451	778.89252	-698.8526	235.74602	646.70221	-694.6499	185.1077	637.40674	-693.25616	199.41553	701.16113	-689.6452	130.80415	1593.0142	-775.41779	241.45929	1575.7539	-786.65356	252.76253	1571.2534	-910.19916	262.6796	1391.228	-858.14886	284.66043	1007.4645	-877.54877	140.13014	1328.4491	-873.05457	244.19624	1380.8613	-725.25592	236.31969	1396.7804	-987.09344	165.47537	1358.1318	-222.88672	206.13768	1353.7155	-222.48666	152.20158	1337.5529	-130.87723	241.90211	1389.0737	-1500.933	288.77368	1382.8456	-1499.9192	236.42557	1391.3008	-1591.1255	293.42749	1329.667	-1271.4644	255.08827	1296.188	-1272.0654	220.93254	1300.2078	-454.2774	179.94885	1277.8811	-466.96075	236.99567	1353.8691	-506.27875	201.20644	1371.5356	-536.79468	238.13284	1362.476	-585.46832	266.37683	1382.1447	-1205.9354	256.98016	1383.8615	-1144.2584	216.162	1385.4113	-1212.5867
114	0.565	132.80316	918.04846	-762.2561	128.52338	918.63635	-984.67743	308.28891	950.22809	-912.5152	307.47641	953.44672	-852.59888	296.61374	966.57922	-882.45605	1270.8568	26.317215	346.47595	1226.4163	26.301525	-1876.9299	323.07535	39.869526	-1019.6964	128.15785	43.4683	-1043.3344	165.06279	34.835049	-1113.6696	140.17555	42.695709	-1079.9714	326.26456	45.86087	-745.18207	134.38525	46.347752	-736.48901	170.04045	33.378143	-662.83142	143.17194	45.933617	-698.06165	276.66913	72.968086	-778.7038	232.41031	456.89529	-829.15186	218.84253	453.95248	-721.51782	278.78873	69.162262	-701.00854	290.1076	209.69513	-691.54327	313.57346	271.371	-691.3269	263.23511	268.22217	-684.59918	301.34833	314.37701	-687.19122	275.16785	68.382736	-994.1076	234.83083	446.57559	-935.40735	220.02731	461.30679	-1041.2664	284.64774	72.268417	-1068.5669	256.71164	319.28256	-1082.7391	307.1666	314.10147	-1077.2285	276.28622	256.18295	-1081.3435	240.82416	783.88214	-1060.1559	241.97505	635.31812	-1065.9672	190.6687	636.99982	-1066.637	218.33424	697.07776	-1070.1772	237.66135	778.90143	-698.85089	235.58522	646.49011	-695.02893	185.10396	637.42035	-693.24432	199.4057	701.16486	-689.63483	130.80052	1593.0304	-775.44519	241.46265	1575.7612	-786.68591	252.78082	1571.2516	-910.21857	262.68002	1391.2349	-858.17487	284.6658	1007.459	-877.54376	140.13539	1328.439	-873.05627	244.21942	1380.8827	-725.26575	236.33069	1396.7793	-987.10461	165.52371	1358.1605	-222.89297	206.17241	1353.7604	-222.49788	152.26241	1337.5908	-130.86699	241.91812	1389.0726	-1500.9418	288.77203	1382.8396	-1499.9318	236.43901	1391.2921	-1591.1252	293.42218	1329.6619	-1271.4795	255.0834	1296.1829	-1272.0779	220.96138	1300.2302	-454.27411	179.98347	1277.9008	-466.96774	237.01912	1353.8889	-506.29883	201.20381	1371.547	-536.81	238.21005	1362.2982	-585.51196	266.40732	1382.1284	-1205.9408	256.99966	1383.8474	-1144.2728	216.22311	1385.327	-1212.5486
